#Comment line ignore any data following # character 
#Hierarchical Translation and Rotation (.htr) file 
[Header]	
#Header keywords are followed by a single value 
FileType HTR		#Single word string
DataType HTRS		#Translation followed by rotation and scale data
FileVersion 1		#integer
NumSegments 84		#integer
NumFrames 2		#integer
DataFrameRate 30		#integer, data frame rate in this file
EulerRotationOrder ZYX
CalibrationUnits mm
RotationUnits Degrees
GlobalAxisofGravity Y
BoneLengthAxis Y
ScaleFactor 1.00
[SegmentNames&Hierarchy]
#CHILD	PARENT
MASTER GLOBAL
root MASTER
chest root
L_mid_tent01 root
R_mid_tent01 root
spine01 root
Bip01_Neck chest
L_humerus chest
R_humerus chest
weapon_bone chest
Bip01_Head Bip01_Neck
eye_left_bone Bip01_Head
eye_right_bone Bip01_Head
L_forearm L_humerus
L_front_hand L_forearm
L_weapon_bone L_forearm
L_front_hand01_01 L_front_hand
L_front_hand02_01 L_front_hand
L_front_hand03_01 L_front_hand
L_front_hand01_02 L_front_hand01_01
L_front_hand02_02 L_front_hand02_01
L_front_hand03_02 L_front_hand03_01
R_forearm R_humerus
R_front_hand R_forearm
R_weapon_bone R_forearm
R_front_hand01_01 R_front_hand
R_front_hand02_01 R_front_hand
R_front_hand03_01 R_front_hand
R_front_hand01_02 R_front_hand01_01
R_front_hand02_02 R_front_hand02_01
R_front_hand03_02 R_front_hand03_01
null_rope01_connect L_mid_tent01
Rope1_Seg01 null_rope01_connect
Rope1_Seg02 Rope1_Seg01
Rope1_Seg03 Rope1_Seg02
Rope1_Seg04 Rope1_Seg03
Rope1_Seg05 Rope1_Seg04
Rope1_Seg06 Rope1_Seg05
Rope1_Seg07 Rope1_Seg06
Rope1_Seg09 Rope1_Seg07
L_mid_hand01 Rope1_Seg09
L_mid_hand02 Rope1_Seg09
L_mid_hand03 Rope1_Seg09
null_rope02_connect R_mid_tent01
Rope2_Seg01 null_rope02_connect
Rope2_Seg02 Rope2_Seg01
Rope2_Seg03 Rope2_Seg02
Rope2_Seg04 Rope2_Seg03
Rope2_Seg05 Rope2_Seg04
Rope2_Seg06 Rope2_Seg05
Rope2_Seg07 Rope2_Seg06
Rope2_Seg09 Rope2_Seg07
R_mid_hand01 Rope2_Seg09
R_mid_hand02 Rope2_Seg09
R_mid_hand03 Rope2_Seg09
spine02 spine01
spine03 spine02
pelvis spine03
null_rope03_connect pelvis
null_rope04_connect pelvis
Rope3_Seg01 null_rope03_connect
Rope3_Seg02 Rope3_Seg01
Rope3_Seg03 Rope3_Seg02
Rope3_Seg04 Rope3_Seg03
Rope3_Seg05 Rope3_Seg04
Rope3_Seg06 Rope3_Seg05
Rope3_Seg07 Rope3_Seg06
Rope3_Seg08 Rope3_Seg07
Rope3_Seg09 Rope3_Seg08
R_rear_hand01 Rope3_Seg09
R_rear_hand02 Rope3_Seg09
R_rear_hand03 Rope3_Seg09
Rope4_Seg01 null_rope04_connect
Rope4_Seg02 Rope4_Seg01
Rope4_Seg03 Rope4_Seg02
Rope4_Seg04 Rope4_Seg03
Rope4_Seg05 Rope4_Seg04
Rope4_Seg06 Rope4_Seg05
Rope4_Seg07 Rope4_Seg06
Rope4_Seg08 Rope4_Seg07
Rope4_Seg09 Rope4_Seg08
L_rear_hand01 Rope4_Seg09
L_rear_hand02 Rope4_Seg09
L_rear_hand03 Rope4_Seg09
[BasePosition]
#SegmentName Tx, Ty, Tz, Rx, Ry, Rz, BoneLength
MASTER 0.000000 0.000000 0.000000 -90.000000 0.000000 0.000000 10.000000 
root 0.000000 0.000000 0.000000 0.000000 0.000000 0.000000 10.000000 
chest 0.000000 0.000000 0.000000 0.000000 0.000000 0.000000 10.000000 
L_mid_tent01 0.000000 0.000000 0.000000 0.000000 0.000000 0.000000 10.000000 
R_mid_tent01 0.000000 0.000000 0.000000 0.000000 0.000000 0.000000 10.000000 
spine01 0.000000 0.000000 0.000000 0.000000 0.000000 0.000000 10.000000 
Bip01_Neck 0.000000 0.000000 0.000000 0.000000 0.000000 0.000000 10.000000 
L_humerus 0.000000 0.000000 0.000000 0.000000 0.000000 0.000000 10.000000 
R_humerus 0.000000 0.000000 0.000000 0.000000 0.000000 0.000000 10.000000 
weapon_bone 0.000000 0.000000 0.000000 0.000000 0.000000 0.000000 10.000000 
Bip01_Head 0.000000 0.000000 0.000000 0.000000 0.000000 0.000000 10.000000 
eye_left_bone 0.000000 0.000000 0.000000 0.000000 0.000000 0.000000 10.000000 
eye_right_bone 0.000000 0.000000 0.000000 0.000000 0.000000 0.000000 10.000000 
L_forearm 0.000000 0.000000 0.000000 0.000000 0.000000 0.000000 10.000000 
L_front_hand 0.000000 0.000000 0.000000 0.000000 0.000000 0.000000 10.000000 
L_weapon_bone 0.000000 0.000000 0.000000 0.000000 0.000000 0.000000 10.000000 
L_front_hand01_01 0.000000 0.000000 0.000000 0.000000 0.000000 0.000000 10.000000 
L_front_hand02_01 0.000000 0.000000 0.000000 0.000000 0.000000 0.000000 10.000000 
L_front_hand03_01 0.000000 0.000000 0.000000 0.000000 0.000000 0.000000 10.000000 
L_front_hand01_02 0.000000 0.000000 0.000000 0.000000 0.000000 0.000000 10.000000 
L_front_hand02_02 0.000000 0.000000 0.000000 0.000000 0.000000 0.000000 10.000000 
L_front_hand03_02 0.000000 0.000000 0.000000 0.000000 0.000000 0.000000 10.000000 
R_forearm 0.000000 0.000000 0.000000 0.000000 0.000000 0.000000 10.000000 
R_front_hand 0.000000 0.000000 0.000000 0.000000 0.000000 0.000000 10.000000 
R_weapon_bone 0.000000 0.000000 0.000000 0.000000 0.000000 0.000000 10.000000 
R_front_hand01_01 0.000000 0.000000 0.000000 0.000000 0.000000 0.000000 10.000000 
R_front_hand02_01 0.000000 0.000000 0.000000 0.000000 0.000000 0.000000 10.000000 
R_front_hand03_01 0.000000 0.000000 0.000000 0.000000 0.000000 0.000000 10.000000 
R_front_hand01_02 0.000000 0.000000 0.000000 0.000000 0.000000 0.000000 10.000000 
R_front_hand02_02 0.000000 0.000000 0.000000 0.000000 0.000000 0.000000 10.000000 
R_front_hand03_02 0.000000 0.000000 0.000000 0.000000 0.000000 0.000000 10.000000 
null_rope01_connect 0.000000 0.000000 0.000000 0.000000 0.000000 0.000000 10.000000 
Rope1_Seg01 0.000000 0.000000 0.000000 0.000000 0.000000 0.000000 10.000000 
Rope1_Seg02 0.000000 0.000000 0.000000 0.000000 0.000000 0.000000 10.000000 
Rope1_Seg03 0.000000 0.000000 0.000000 0.000000 0.000000 0.000000 10.000000 
Rope1_Seg04 0.000000 0.000000 0.000000 0.000000 0.000000 0.000000 10.000000 
Rope1_Seg05 0.000000 0.000000 0.000000 0.000000 0.000000 0.000000 10.000000 
Rope1_Seg06 0.000000 0.000000 0.000000 0.000000 0.000000 0.000000 10.000000 
Rope1_Seg07 0.000000 0.000000 0.000000 0.000000 0.000000 0.000000 10.000000 
Rope1_Seg09 0.000000 0.000000 0.000000 0.000000 0.000000 0.000000 10.000000 
L_mid_hand01 0.000000 0.000000 0.000000 0.000000 0.000000 0.000000 10.000000 
L_mid_hand02 0.000000 0.000000 0.000000 0.000000 0.000000 0.000000 10.000000 
L_mid_hand03 0.000000 0.000000 0.000000 0.000000 0.000000 0.000000 10.000000 
null_rope02_connect 0.000000 0.000000 0.000000 0.000000 0.000000 0.000000 10.000000 
Rope2_Seg01 0.000000 0.000000 0.000000 0.000000 0.000000 0.000000 10.000000 
Rope2_Seg02 0.000000 0.000000 0.000000 0.000000 0.000000 0.000000 10.000000 
Rope2_Seg03 0.000000 0.000000 0.000000 0.000000 0.000000 0.000000 10.000000 
Rope2_Seg04 0.000000 0.000000 0.000000 0.000000 0.000000 0.000000 10.000000 
Rope2_Seg05 0.000000 0.000000 0.000000 0.000000 0.000000 0.000000 10.000000 
Rope2_Seg06 0.000000 0.000000 0.000000 0.000000 0.000000 0.000000 10.000000 
Rope2_Seg07 0.000000 0.000000 0.000000 0.000000 0.000000 0.000000 10.000000 
Rope2_Seg09 0.000000 0.000000 0.000000 0.000000 0.000000 0.000000 10.000000 
R_mid_hand01 0.000000 0.000000 0.000000 0.000000 0.000000 0.000000 10.000000 
R_mid_hand02 0.000000 0.000000 0.000000 0.000000 0.000000 0.000000 10.000000 
R_mid_hand03 0.000000 0.000000 0.000000 0.000000 0.000000 0.000000 10.000000 
spine02 0.000000 0.000000 0.000000 0.000000 0.000000 0.000000 10.000000 
spine03 0.000000 0.000000 0.000000 0.000000 0.000000 0.000000 10.000000 
pelvis 0.000000 0.000000 0.000000 0.000000 0.000000 0.000000 10.000000 
null_rope03_connect 0.000000 0.000000 0.000000 0.000000 0.000000 0.000000 10.000000 
null_rope04_connect 0.000000 0.000000 0.000000 0.000000 0.000000 0.000000 10.000000 
Rope3_Seg01 0.000000 0.000000 0.000000 0.000000 0.000000 0.000000 10.000000 
Rope3_Seg02 0.000000 0.000000 0.000000 0.000000 0.000000 0.000000 10.000000 
Rope3_Seg03 0.000000 0.000000 0.000000 0.000000 0.000000 0.000000 10.000000 
Rope3_Seg04 0.000000 0.000000 0.000000 0.000000 0.000000 0.000000 10.000000 
Rope3_Seg05 0.000000 0.000000 0.000000 0.000000 0.000000 0.000000 10.000000 
Rope3_Seg06 0.000000 0.000000 0.000000 0.000000 0.000000 0.000000 10.000000 
Rope3_Seg07 0.000000 0.000000 0.000000 0.000000 0.000000 0.000000 10.000000 
Rope3_Seg08 0.000000 0.000000 0.000000 0.000000 0.000000 0.000000 10.000000 
Rope3_Seg09 0.000000 0.000000 0.000000 0.000000 0.000000 0.000000 10.000000 
R_rear_hand01 0.000000 0.000000 0.000000 0.000000 0.000000 0.000000 10.000000 
R_rear_hand02 0.000000 0.000000 0.000000 0.000000 0.000000 0.000000 10.000000 
R_rear_hand03 0.000000 0.000000 0.000000 0.000000 0.000000 0.000000 10.000000 
Rope4_Seg01 0.000000 0.000000 0.000000 0.000000 0.000000 0.000000 10.000000 
Rope4_Seg02 0.000000 0.000000 0.000000 0.000000 0.000000 0.000000 10.000000 
Rope4_Seg03 0.000000 0.000000 0.000000 0.000000 0.000000 0.000000 10.000000 
Rope4_Seg04 0.000000 0.000000 0.000000 0.000000 0.000000 0.000000 10.000000 
Rope4_Seg05 0.000000 0.000000 0.000000 0.000000 0.000000 0.000000 10.000000 
Rope4_Seg06 0.000000 0.000000 0.000000 0.000000 0.000000 0.000000 10.000000 
Rope4_Seg07 0.000000 0.000000 0.000000 0.000000 0.000000 0.000000 10.000000 
Rope4_Seg08 0.000000 0.000000 0.000000 0.000000 0.000000 0.000000 10.000000 
Rope4_Seg09 0.000000 0.000000 0.000000 0.000000 0.000000 0.000000 10.000000 
L_rear_hand01 0.000000 0.000000 0.000000 0.000000 0.000000 0.000000 10.000000 
L_rear_hand02 0.000000 0.000000 0.000000 0.000000 0.000000 0.000000 10.000000 
L_rear_hand03 0.000000 0.000000 0.000000 0.000000 0.000000 0.000000 10.000000 
#Beginning of Data. Separated by tabs
#Fr	Tx	Ty	Tz	Rx	Ry	Rz	SF
[MASTER]
15 -744.035645 -3182.024658 2918.247803 0.000000 -0.002347 -89.999992 4381.214355
16 -488.860077 -3581.379395 2788.826660 0.000000 -0.002347 -90.000000 4565.393555
[root]
15 -118.897369 -20.013613 462.015594 -10.856627 9.041789 173.688522 477.488800
16 -122.419426 -124.044830 523.782166 -14.036018 7.015925 178.634384 552.015747
[chest]
15 -84.512650 -34.090519 0.000000 71.591034 11.050232 150.713455 91.129311
16 -84.512650 -34.090519 0.000000 66.503517 9.422619 150.620499 91.129311
[L_mid_tent01]
15 27.299742 22.177538 -249.918259 -9.493157 16.440258 61.247517 252.381165
16 27.299757 22.177538 -249.918259 -11.906232 14.909489 55.934185 252.381165
[R_mid_tent01]
15 23.228794 24.509907 226.238495 148.086761 -50.718430 56.344845 228.744751
16 23.228794 24.509907 226.238495 144.838593 -56.583946 51.254276 228.744751
[spine01]
15 -0.361383 -0.195265 0.000000 0.001744 0.001575 5.810587 0.410763
16 -0.361383 -0.195265 0.000000 0.001736 0.001584 5.250149 0.410763
[Bip01_Neck]
15 165.484543 71.581718 0.000119 176.643677 -1.657967 43.431911 180.302734
16 165.484543 71.581718 0.000119 176.643677 -1.657967 43.431915 180.302734
[L_humerus]
15 -13.983130 -135.272980 -120.471481 164.476959 59.862305 -102.934128 181.680161
16 -13.983130 -135.272980 -120.471481 171.431213 25.353020 -92.948654 181.680161
[R_humerus]
15 -13.983309 -135.273102 125.287651 -176.848724 -19.019571 -86.573631 184.909012
16 -13.983309 -135.273102 125.287651 -177.000992 -6.253446 -85.870682 184.909012
[weapon_bone]
15 235.964890 -300.705902 0.000000 0.000000 -89.951546 -128.212341 382.234833
16 235.964890 -300.705902 0.000000 0.000000 -89.951546 -128.212341 382.234833
[Bip01_Head]
15 213.330521 186.031876 7.692345 43.845638 0.762435 -38.188919 283.155365
16 213.332336 186.026688 7.758905 43.389893 0.837975 -38.268082 283.155090
[eye_left_bone]
15 -24.626970 125.451866 -64.772606 0.000000 -90.000000 -99.840431 143.318359
16 -24.626970 125.451866 -64.772606 0.000000 -90.000000 -99.840431 143.318359
[eye_right_bone]
15 -24.626970 125.451866 64.327362 0.000000 -89.965736 80.156380 143.117676
16 -24.626970 125.451866 64.327362 0.000000 -89.965736 80.156380 143.117676
[L_forearm]
15 322.776093 0.000000 -0.000119 0.000119 -0.002344 -95.807457 322.776093
16 322.776093 0.000000 -0.000119 0.000119 -0.002344 -95.807457 322.776093
[L_front_hand]
15 241.149185 -0.042021 -3.300071 -178.667953 -1.835447 -27.422342 241.171753
16 241.149185 -0.042021 -3.300071 -178.667953 -1.835447 -27.422350 241.171753
[L_weapon_bone]
15 156.183838 0.000000 0.000000 0.000014 0.000007 0.000001 156.183838
16 156.183838 0.000000 0.000000 0.000014 0.000007 0.000001 156.183838
[L_front_hand01_01]
15 86.095154 20.947098 -0.655860 -0.298084 -0.518635 67.679581 88.609184
16 86.095154 20.947098 -0.655860 -0.307662 -0.512638 68.898659 88.609184
[L_front_hand02_01]
15 86.935165 -11.437475 24.513514 143.833725 -55.908619 -48.913998 91.046425
16 86.935165 -11.437475 24.513514 145.311661 -56.611855 -50.692310 91.046425
[L_front_hand03_01]
15 86.637497 -14.123976 -20.424902 -144.057922 54.129482 -50.849693 90.126129
16 86.637497 -14.123976 -20.424902 -145.445221 54.832184 -52.559975 90.126129
[L_front_hand01_02]
15 71.020905 -0.000179 0.000030 0.000317 -0.002326 -105.506187 71.020905
16 71.020905 -0.000179 0.000030 0.000318 -0.002326 -105.568306 71.020905
[L_front_hand02_02]
15 71.020927 -0.000119 0.000060 0.000317 -0.002326 -105.506187 71.020927
16 71.020927 -0.000119 0.000060 0.000318 -0.002326 -105.568306 71.020927
[L_front_hand03_02]
15 71.020905 -0.000060 0.000060 0.000317 -0.002326 -105.506187 71.020905
16 71.020905 -0.000060 0.000060 0.000318 -0.002326 -105.568306 71.020905
[R_forearm]
15 322.776428 -0.000060 0.000030 0.209504 0.012586 -94.339050 322.776428
16 322.776428 -0.000060 0.000030 0.209504 0.012586 -94.339058 322.776428
[R_front_hand]
15 238.847015 -0.006795 2.210259 -2.635298 -10.645461 -26.312506 238.857239
16 238.847015 -0.006795 2.210259 -2.635298 -10.645461 -26.312506 238.857239
[R_weapon_bone]
15 155.664093 0.002503 -0.000030 0.003487 0.001180 -90.988930 155.664078
16 155.664093 0.002503 -0.000030 0.003487 0.001180 -90.988930 155.664078
[R_front_hand01_01]
15 87.624611 14.231146 22.918642 -143.936417 -55.959175 49.146500 91.683487
16 87.624611 14.231146 22.918642 -147.368515 -57.499996 53.246597 91.683487
[R_front_hand02_01]
15 89.356956 14.367283 -19.491137 144.531738 54.354271 51.666687 92.579636
16 89.356956 14.367283 -19.491137 147.772629 55.873177 55.617874 92.579636
[R_front_hand03_01]
15 87.286232 -22.307278 -0.143439 0.103016 -0.441569 -68.007950 90.091743
16 87.286232 -22.307278 -0.143439 0.124412 -0.437303 -70.732681 90.091743
[R_front_hand01_02]
15 71.020905 0.000060 0.000119 0.002323 -0.000334 106.381714 71.020905
16 71.020905 0.000060 0.000119 0.002323 -0.000334 106.381721 71.020905
[R_front_hand02_02]
15 71.020844 -0.000030 -0.000119 0.002323 -0.000334 106.381714 71.020836
16 71.020844 -0.000030 -0.000119 0.002323 -0.000334 106.381721 71.020836
[R_front_hand03_02]
15 71.020905 0.000000 0.000030 0.002323 -0.000334 106.381714 71.020905
16 71.020905 0.000000 0.000030 0.002323 -0.000334 106.381721 71.020905
[null_rope01_connect]
15 328.732483 0.000000 -0.000238 11.842467 28.651550 -145.735535 328.732483
16 328.732483 0.000000 -0.000238 5.849075 32.812248 -146.708679 328.732483
[Rope1_Seg01]
15 0.000024 0.000311 0.000000 132.542892 43.142532 -9.686072 0.000312
16 0.000024 0.000333 0.000000 134.262100 70.864059 -25.241354 0.000334
[Rope1_Seg02]
15 139.999863 -0.000179 0.000000 3.593728 -22.703157 6.011196 139.999863
16 139.999863 -0.000179 0.000000 1.188406 -21.442093 8.084687 139.999863
[Rope1_Seg03]
15 139.999924 0.000060 -0.000060 -3.089815 -25.808569 11.740821 139.999924
16 139.999924 0.000060 -0.000060 -5.917293 -26.962908 15.963099 139.999924
[Rope1_Seg04]
15 139.999924 -0.000060 -0.000119 -3.952249 -15.327115 6.823246 139.999924
16 139.999924 -0.000060 -0.000119 -8.968094 -19.573368 5.871573 139.999924
[Rope1_Seg05]
15 139.999832 0.000119 -0.000060 -10.177647 -17.664078 -1.880212 139.999832
16 139.999832 0.000119 -0.000060 -21.919733 -23.249262 -10.132165 139.999832
[Rope1_Seg06]
15 139.999954 0.000119 -0.000060 -22.629427 -26.876183 -12.420271 139.999954
16 139.999954 0.000119 -0.000060 -16.736927 -14.398377 -13.997937 139.999954
[Rope1_Seg07]
15 139.999985 0.000060 0.000000 -13.554543 -12.537604 -12.570807 139.999985
16 139.999985 0.000060 0.000000 -7.775434 -5.541370 -9.430130 139.999985
[Rope1_Seg09]
15 121.602913 0.000119 -0.000089 -89.793175 -1.359789 0.847147 121.602913
16 121.602913 0.000119 -0.000089 -89.793175 -1.359789 0.847147 121.602913
[L_mid_hand01]
15 103.859421 1.038730 8.195221 111.331635 -47.044144 -16.484426 104.187431
16 103.859421 1.038730 8.195221 112.678780 -49.980732 -18.276028 104.187431
[L_mid_hand02]
15 105.572853 -4.139662 -10.864139 -150.562561 35.052639 -44.910461 106.211075
16 105.572853 -4.139662 -10.864139 -152.571289 36.560638 -48.342640 106.211075
[L_mid_hand03]
15 104.641464 17.579376 -3.913581 -12.713109 13.922001 50.749584 106.179977
16 104.641464 17.579376 -3.913581 -11.926215 14.597148 53.941067 106.179977
[null_rope02_connect]
15 328.732849 0.000179 -0.000119 134.152740 4.008740 127.680145 328.732849
16 328.732849 0.000179 -0.000119 125.613556 2.185673 127.531013 328.732849
[Rope2_Seg01]
15 -0.000067 -0.000142 0.000000 131.205276 -33.961800 -7.612631 0.000157
16 -0.000066 -0.000139 0.000000 -142.821304 -69.307724 -53.156429 0.000154
[Rope2_Seg02]
15 139.999741 -0.000060 -0.000119 57.210007 -8.010866 33.352074 139.999756
16 139.999741 -0.000060 -0.000119 18.112013 19.943693 18.906334 139.999756
[Rope2_Seg03]
15 140.000107 0.000030 0.000000 35.046024 21.451359 21.365370 140.000107
16 140.000107 0.000030 0.000000 5.794210 10.595222 9.335625 140.000107
[Rope2_Seg04]
15 139.999802 0.000000 -0.000060 5.545184 12.112084 2.716669 139.999802
16 139.999802 0.000000 -0.000060 1.540306 11.950437 1.396236 139.999802
[Rope2_Seg05]
15 139.999985 -0.000060 0.000119 5.171523 15.436630 4.305645 139.999985
16 139.999985 -0.000060 0.000119 -3.274633 33.568283 -5.731505 139.999985
[Rope2_Seg06]
15 139.999893 -0.000030 -0.000119 3.925593 29.004545 7.128298 139.999893
16 139.999893 -0.000030 -0.000119 -10.536829 29.452641 -3.149859 139.999893
[Rope2_Seg07]
15 139.999893 0.000060 -0.000060 -1.984021 18.128252 3.161884 139.999893
16 139.999893 0.000060 -0.000060 -12.755217 13.677258 1.227401 139.999893
[Rope2_Seg09]
15 121.338966 0.000089 -0.000060 33.793236 -1.359788 -0.847141 121.338966
16 121.338966 0.000089 -0.000060 33.793236 -1.359788 -0.847141 121.338966
[R_mid_hand01]
15 104.680779 11.144459 -10.335981 -37.023243 32.123154 37.917080 105.778534
16 104.680779 11.144459 -10.335981 -37.204075 31.906813 37.576267 105.778534
[R_mid_hand02]
15 104.070427 2.443552 8.231699 70.253304 -42.771339 14.235763 104.424065
16 104.070427 2.443552 8.231699 70.367462 -42.427391 14.067811 104.424065
[R_mid_hand03]
15 106.028137 -11.221827 -5.996406 -169.973053 12.289117 -47.575344 106.788818
16 106.028137 -11.221827 -5.996406 -169.893616 12.226658 -47.211018 106.788818
[spine02]
15 129.756927 0.001550 0.000119 -1.023899 -3.926965 6.770993 129.756927
16 129.756927 0.001550 0.000119 -1.023899 -3.926965 6.770993 129.756927
[spine03]
15 78.613983 0.087404 -4.898880 1.040681 4.146420 4.212376 78.766518
16 78.613991 0.087410 -4.898880 1.040681 4.146420 4.212376 78.766525
[pelvis]
15 169.435242 0.051022 0.000000 6.400780 -0.188279 -10.718875 169.435257
16 169.435242 0.051022 0.000000 6.301219 -0.187693 -10.718160 169.435257
[null_rope03_connect]
15 -1.257226 -2.466202 137.391083 10.199356 3.715806 -89.663818 137.418976
16 -1.257226 -2.466202 137.391083 7.832927 7.902171 -93.946655 137.418976
[null_rope04_connect]
15 -1.259640 -2.480268 -137.844437 10.199356 3.715806 -89.663818 137.872513
16 -1.259640 -2.480268 -137.844437 7.832927 7.902171 -93.946655 137.872513
[Rope3_Seg01]
15 0.000024 0.000311 0.000000 -105.566040 -34.609371 58.431080 0.000312
16 0.000024 0.000333 0.000000 -116.751854 -39.585094 75.094696 0.000334
[Rope3_Seg02]
15 139.999924 -0.000119 0.000060 2.791691 -9.241289 -22.996172 139.999924
16 139.999924 -0.000119 0.000060 4.257458 -18.143618 -23.998041 139.999924
[Rope3_Seg03]
15 139.999924 -0.000119 0.000119 3.649014 -17.459263 -39.893795 139.999924
16 139.999924 -0.000119 0.000119 10.562151 -21.753357 -23.488077 139.999924
[Rope3_Seg04]
15 139.999924 0.000119 0.000000 -4.231372 -11.179267 -22.876892 139.999924
16 139.999924 0.000119 0.000000 6.246012 -10.052339 -10.734520 139.999924
[Rope3_Seg05]
15 139.999924 -0.000238 0.000060 -26.072874 1.918884 -9.896923 139.999924
16 139.999924 -0.000238 0.000060 -17.247744 3.268184 -7.243726 139.999924
[Rope3_Seg06]
15 139.999893 -0.000119 -0.000060 -33.971924 11.155177 -5.082743 139.999893
16 139.999893 -0.000119 -0.000060 -18.397541 6.313701 -4.203310 139.999893
[Rope3_Seg07]
15 139.999771 0.000060 -0.000119 -15.901681 10.459249 0.332016 139.999771
16 139.999771 0.000060 -0.000119 -9.307812 3.219141 -2.489428 139.999771
[Rope3_Seg08]
15 139.999985 -0.000060 0.000000 -6.374001 6.299605 1.312466 139.999985
16 139.999985 -0.000060 0.000000 -5.635811 2.311985 -1.256239 139.999985
[Rope3_Seg09]
15 90.185997 -0.000179 -0.000060 89.793228 -1.359877 -0.847183 90.185997
16 90.185997 -0.000179 -0.000060 89.793228 -1.359877 -0.847183 90.185997
[R_rear_hand01]
15 103.366196 -6.073594 -10.757982 -164.755127 19.627697 -40.352161 104.101845
16 103.366196 -6.073594 -10.757982 -164.972809 19.789427 -40.983841 104.101845
[R_rear_hand02]
15 100.509819 12.039542 -7.992327 -30.792652 24.782450 38.141541 101.543350
16 100.509819 12.039542 -7.992327 -30.544968 25.097786 38.729183 101.543350
[R_rear_hand03]
15 101.539970 5.215704 5.435467 82.448357 -41.048256 8.840384 101.819031
16 101.539970 5.215704 5.435467 82.376854 -41.657902 8.948386 101.819031
[Rope4_Seg01]
15 0.000002 0.000339 -0.000153 26.711428 42.226746 39.878330 0.000372
16 0.000003 0.000361 -0.000153 56.387970 61.557449 76.664200 0.000392
[Rope4_Seg02]
15 139.999985 0.000060 0.000119 -5.789208 16.357470 -15.700873 139.999985
16 139.999985 0.000060 0.000119 3.213705 14.080107 -5.666128 139.999985
[Rope4_Seg03]
15 139.999924 0.000000 -0.000238 -5.252064 22.040003 -27.043264 139.999924
16 139.999924 0.000000 -0.000238 9.940950 18.662292 -16.561771 139.999924
[Rope4_Seg04]
15 139.999985 0.000000 0.000119 0.809814 13.406768 -18.287836 139.999985
16 139.999985 0.000000 0.000119 16.790771 22.463097 -16.817953 139.999985
[Rope4_Seg05]
15 139.999802 -0.000060 -0.000119 4.517031 25.149462 -0.526790 139.999802
16 139.999802 -0.000060 -0.000119 25.578434 29.414835 -0.327685 139.999802
[Rope4_Seg06]
15 139.999924 0.000000 0.000060 11.528066 26.085405 2.425706 139.999924
16 139.999924 0.000000 0.000060 21.513288 8.550069 -4.628286 139.999924
[Rope4_Seg07]
15 139.999802 0.000000 0.000000 11.266383 9.395405 -2.311054 139.999802
16 139.999802 0.000000 0.000000 12.632565 2.459107 -3.758322 139.999802
[Rope4_Seg08]
15 139.999924 0.000000 0.000119 6.485571 4.258893 -2.106725 139.999924
16 139.999924 0.000000 0.000119 5.348627 0.862054 -2.305117 139.999924
[Rope4_Seg09]
15 90.185791 0.000060 0.000060 -135.617828 2.228885 0.850567 90.185791
16 90.185791 0.000060 0.000060 -135.617828 2.228885 0.850567 90.185791
[L_rear_hand01]
15 101.696655 -8.392275 -7.654577 -26.201536 -29.631567 131.847122 102.329041
16 101.696655 -8.392275 -7.654577 -24.658646 -30.887184 128.783096 102.329041
[L_rear_hand02]
15 102.726799 -1.568258 5.773216 80.925568 51.072418 169.054459 102.900848
16 102.726799 -1.568258 5.773216 80.302322 53.966492 168.267426 102.900848
[L_rear_hand03]
15 104.552910 9.721220 -10.420293 -168.512375 -21.976343 -129.102875 105.519653
16 104.552910 9.721220 -10.420293 -169.691238 -22.530384 -125.995583 105.519653
